<svg width="60" height="61" viewBox="0 0 60 61" fill="none" xmlns="http://www.w3.org/2000/svg">
<rect x="0.5" y="0.902344" width="59" height="59" rx="29.5" fill="black" fill-opacity="0.15"/>
<g filter="url(#filter0_dd_975_143)">
<g clip-path="url(#clip0_975_143)">
<path d="M43.0824 36.079C43.012 36.0469 42.9415 36.0277 42.8775 35.9893C40.0728 34.2156 37.2681 32.4418 34.4634 30.6681C34.4058 30.6297 34.3545 30.5912 34.2649 30.5336C37.2169 28.587 40.1496 26.6531 43.0824 24.7257C43.0824 28.5101 43.0824 32.2945 43.0824 36.079Z" fill="white"/>
<path d="M30.0067 21.4023C33.7783 21.4023 37.5563 21.4023 41.3279 21.4023C42.1219 21.4023 42.7303 21.8186 42.9608 22.5101C43.0248 22.6958 43.012 22.8175 42.8199 22.9456C39.1123 25.3789 35.4111 27.8186 31.7036 30.2583C31.1849 30.5976 30.6662 30.937 30.1475 31.2892C30.0323 31.3661 29.949 31.3661 29.8338 31.2892C25.5947 28.4845 21.3492 25.6926 17.1038 22.9007C16.9821 22.8175 16.9629 22.7471 16.9949 22.6062C17.1614 21.9658 17.7313 21.4728 18.4037 21.4087C18.5253 21.4023 18.6406 21.4023 18.7623 21.4023C22.5083 21.4023 26.2607 21.4023 30.0067 21.4023Z" fill="white"/>
<path d="M29.9808 39.4024C26.2028 39.4024 22.4312 39.4024 18.6532 39.4024C17.8592 39.4024 17.2508 38.9861 17.0203 38.2946C16.9627 38.1153 16.9691 38.0064 17.1612 37.8847C20.4525 35.81 23.7439 33.7289 27.0289 31.6478C27.1825 31.5518 27.285 31.5582 27.4323 31.6606C28.0854 32.1025 28.7578 32.5315 29.4109 32.9733C29.8015 33.2423 30.1729 33.2423 30.5699 32.9797C31.2423 32.5251 31.9211 32.0897 32.5934 31.6414C32.7215 31.5582 32.8047 31.5582 32.9328 31.6414C36.2434 33.7417 39.5475 35.8356 42.8645 37.9232C43.0118 38.0192 43.0246 38.1089 42.9798 38.2561C42.8005 38.8837 42.2306 39.3575 41.5646 39.4088C41.4429 39.4152 41.3277 39.4152 41.206 39.4152C37.4664 39.4024 33.7204 39.4024 29.9808 39.4024Z" fill="white"/>
<path d="M16.918 24.7322C19.8635 26.6724 22.7771 28.5934 25.7291 30.5401C22.7835 32.4035 19.8699 34.2477 16.918 36.111C16.918 32.301 16.918 28.5422 16.918 24.7322Z" fill="white"/>
</g>
</g>
<rect x="0.5" y="0.902344" width="59" height="59" rx="29.5" stroke="white"/>
<defs>
<filter id="filter0_dd_975_143" x="-8" y="-7.59766" width="76" height="76" filterUnits="userSpaceOnUse" color-interpolation-filters="sRGB">
<feFlood flood-opacity="0" result="BackgroundImageFix"/>
<feColorMatrix in="SourceAlpha" type="matrix" values="0 0 0 0 0 0 0 0 0 0 0 0 0 0 0 0 0 0 127 0" result="hardAlpha"/>
<feOffset dx="3" dy="3"/>
<feGaussianBlur stdDeviation="2.5"/>
<feComposite in2="hardAlpha" operator="out"/>
<feColorMatrix type="matrix" values="0 0 0 0 0.411765 0 0 0 0 0.505882 0 0 0 0 0.635294 0 0 0 0.16 0"/>
<feBlend mode="normal" in2="BackgroundImageFix" result="effect1_dropShadow_975_143"/>
<feColorMatrix in="SourceAlpha" type="matrix" values="0 0 0 0 0 0 0 0 0 0 0 0 0 0 0 0 0 0 127 0" result="hardAlpha"/>
<feOffset dx="-4" dy="-4"/>
<feGaussianBlur stdDeviation="2"/>
<feComposite in2="hardAlpha" operator="out"/>
<feColorMatrix type="matrix" values="0 0 0 0 1 0 0 0 0 1 0 0 0 0 1 0 0 0 0.25 0"/>
<feBlend mode="normal" in2="effect1_dropShadow_975_143" result="effect2_dropShadow_975_143"/>
<feBlend mode="normal" in="SourceGraphic" in2="effect2_dropShadow_975_143" result="shape"/>
</filter>
<clipPath id="clip0_975_143">
<rect width="26.1644" height="18" fill="white" transform="translate(16.918 21.4023)"/>
</clipPath>
</defs>
</svg>
