<svg width="76" height="77" viewBox="0 0 76 77" fill="none" xmlns="http://www.w3.org/2000/svg">
<g filter="url(#filter0_dd_975_151)">
<rect x="8" y="8.40234" width="60" height="60" rx="30" fill="white" shape-rendering="crispEdges"/>
<g filter="url(#filter1_dd_975_151)">
<path d="M50.1226 30.8592C49.5314 31.7753 48.791 32.5466 47.931 33.2035C47.7579 33.3361 47.7041 33.4627 47.7101 33.6796C47.7698 36.0119 47.2682 38.2236 46.2709 40.3268C45.0766 42.8338 43.3389 44.8648 40.9861 46.3352C39.314 47.3778 37.4987 47.9985 35.5519 48.2637C34.1785 48.4505 32.811 48.4505 31.4435 48.2516C29.4609 47.9624 27.6216 47.2874 25.9257 46.2026C25.9138 46.1966 25.9078 46.1785 25.8779 46.1484C28.5711 46.3955 30.9896 45.7326 33.1991 44.0572C32.8229 44.0271 32.5064 44.003 32.2078 43.9307C30.494 43.4968 29.3056 42.4482 28.6308 40.8029C28.5293 40.5498 28.5472 40.5378 28.8219 40.5799C29.4191 40.6643 30.0103 40.6282 30.5955 40.5016C30.6313 40.4956 30.6672 40.4715 30.7149 40.4534C27.8486 39.7302 26.6901 37.1509 26.8155 35.4635C27.4903 35.807 28.1949 36.036 29.019 36.0541C27.9262 35.2525 27.2335 34.2461 26.9528 32.9685C26.6722 31.6969 26.8752 30.4976 27.4903 29.3586C27.5858 29.3827 27.6157 29.449 27.6575 29.5033C29.7475 31.9862 32.375 33.5832 35.5221 34.3004C36.2207 34.457 36.9314 34.5354 37.642 34.5957C37.8211 34.6077 37.8092 34.5474 37.7853 34.4088C37.5046 32.5286 38.0062 30.9074 39.4335 29.6419C40.586 28.6174 41.9594 28.2377 43.4822 28.4667C44.5451 28.6294 45.4528 29.0995 46.2172 29.8649C46.3127 29.9613 46.3904 29.9854 46.5277 29.9553C47.4951 29.7383 48.4147 29.3948 49.2806 28.9127C49.3403 28.8765 49.406 28.8524 49.5135 28.7922C49.1313 29.9673 48.4267 30.8291 47.3936 31.5282C47.7638 31.5161 48.0565 31.4498 48.3431 31.3775C48.6357 31.3052 48.9283 31.2269 49.2149 31.1365C49.5075 31.04 49.8002 30.9316 50.0868 30.8231C50.0987 30.8351 50.1107 30.8472 50.1226 30.8592Z" fill="black"/>
<path d="M50.1226 30.8592C49.5314 31.7753 48.791 32.5466 47.931 33.2035C47.7579 33.3361 47.7041 33.4627 47.7101 33.6796C47.7698 36.0119 47.2682 38.2236 46.2709 40.3268C45.0766 42.8338 43.3389 44.8648 40.9861 46.3352C39.314 47.3778 37.4987 47.9985 35.5519 48.2637C34.1785 48.4505 32.811 48.4505 31.4435 48.2516C29.4609 47.9624 27.6216 47.2874 25.9257 46.2026C25.9138 46.1966 25.9078 46.1785 25.8779 46.1484C28.5711 46.3955 30.9896 45.7326 33.1991 44.0572C32.8229 44.0271 32.5064 44.003 32.2078 43.9307C30.494 43.4968 29.3056 42.4482 28.6308 40.8029C28.5293 40.5498 28.5472 40.5378 28.8219 40.5799C29.4191 40.6643 30.0103 40.6282 30.5955 40.5016C30.6313 40.4956 30.6672 40.4715 30.7149 40.4534C27.8486 39.7302 26.6901 37.1509 26.8155 35.4635C27.4903 35.807 28.1949 36.036 29.019 36.0541C27.9262 35.2525 27.2335 34.2461 26.9528 32.9685C26.6722 31.6969 26.8752 30.4976 27.4903 29.3586C27.5858 29.3827 27.6157 29.449 27.6575 29.5033C29.7475 31.9862 32.375 33.5832 35.5221 34.3004C36.2207 34.457 36.9314 34.5354 37.642 34.5957C37.8211 34.6077 37.8092 34.5474 37.7853 34.4088C37.5046 32.5286 38.0062 30.9074 39.4335 29.6419C40.586 28.6174 41.9594 28.2377 43.4822 28.4667C44.5451 28.6294 45.4528 29.0995 46.2172 29.8649C46.3127 29.9613 46.3904 29.9854 46.5277 29.9553C47.4951 29.7383 48.4147 29.3948 49.2806 28.9127C49.3403 28.8765 49.406 28.8524 49.5135 28.7922C49.1313 29.9673 48.4267 30.8291 47.3936 31.5282C47.7638 31.5161 48.0565 31.4498 48.3431 31.3775C48.6357 31.3052 48.9283 31.2269 49.2149 31.1365C49.5075 31.04 49.8002 30.9316 50.0868 30.8231C50.0987 30.8351 50.1107 30.8472 50.1226 30.8592Z" fill="black" fill-opacity="0.2"/>
</g>
</g>
<defs>
<filter id="filter0_dd_975_151" x="0" y="0.402344" width="76" height="76" filterUnits="userSpaceOnUse" color-interpolation-filters="sRGB">
<feFlood flood-opacity="0" result="BackgroundImageFix"/>
<feColorMatrix in="SourceAlpha" type="matrix" values="0 0 0 0 0 0 0 0 0 0 0 0 0 0 0 0 0 0 127 0" result="hardAlpha"/>
<feOffset dx="3" dy="3"/>
<feGaussianBlur stdDeviation="2.5"/>
<feComposite in2="hardAlpha" operator="out"/>
<feColorMatrix type="matrix" values="0 0 0 0 0.411765 0 0 0 0 0.505882 0 0 0 0 0.635294 0 0 0 0.16 0"/>
<feBlend mode="normal" in2="BackgroundImageFix" result="effect1_dropShadow_975_151"/>
<feColorMatrix in="SourceAlpha" type="matrix" values="0 0 0 0 0 0 0 0 0 0 0 0 0 0 0 0 0 0 127 0" result="hardAlpha"/>
<feOffset dx="-4" dy="-4"/>
<feGaussianBlur stdDeviation="2"/>
<feComposite in2="hardAlpha" operator="out"/>
<feColorMatrix type="matrix" values="0 0 0 0 1 0 0 0 0 1 0 0 0 0 1 0 0 0 0.25 0"/>
<feBlend mode="normal" in2="effect1_dropShadow_975_151" result="effect2_dropShadow_975_151"/>
<feBlend mode="normal" in="SourceGraphic" in2="effect2_dropShadow_975_151" result="shape"/>
</filter>
<filter id="filter1_dd_975_151" x="0" y="0.402344" width="76" height="76" filterUnits="userSpaceOnUse" color-interpolation-filters="sRGB">
<feFlood flood-opacity="0" result="BackgroundImageFix"/>
<feColorMatrix in="SourceAlpha" type="matrix" values="0 0 0 0 0 0 0 0 0 0 0 0 0 0 0 0 0 0 127 0" result="hardAlpha"/>
<feOffset dx="3" dy="3"/>
<feGaussianBlur stdDeviation="2.5"/>
<feComposite in2="hardAlpha" operator="out"/>
<feColorMatrix type="matrix" values="0 0 0 0 0.411765 0 0 0 0 0.505882 0 0 0 0 0.635294 0 0 0 0.16 0"/>
<feBlend mode="normal" in2="BackgroundImageFix" result="effect1_dropShadow_975_151"/>
<feColorMatrix in="SourceAlpha" type="matrix" values="0 0 0 0 0 0 0 0 0 0 0 0 0 0 0 0 0 0 127 0" result="hardAlpha"/>
<feOffset dx="-4" dy="-4"/>
<feGaussianBlur stdDeviation="2"/>
<feComposite in2="hardAlpha" operator="out"/>
<feColorMatrix type="matrix" values="0 0 0 0 1 0 0 0 0 1 0 0 0 0 1 0 0 0 0.25 0"/>
<feBlend mode="normal" in2="effect1_dropShadow_975_151" result="effect2_dropShadow_975_151"/>
<feBlend mode="normal" in="SourceGraphic" in2="effect2_dropShadow_975_151" result="shape"/>
</filter>
</defs>
</svg>
